<?xml version="1.0" encoding="utf-8"?><svg xmlns="http://www.w3.org/2000/svg" xmlns:xlink="http://www.w3.org/1999/xlink"><symbol fill="none" viewBox="0 0 63 63" id="Ellipse" xmlns="http://www.w3.org/2000/svg"><circle cx="31.5" cy="31.5" r="31.5" fill="#D9D9D9"/></symbol><symbol fill="none" viewBox="0 0 32 32" id="arrow-right" xmlns="http://www.w3.org/2000/svg"><path d="M6.667 16h18.667M16 6.667 25.333 16 16 25.333" stroke="#000" stroke-width="2" stroke-linecap="round" stroke-linejoin="round"/></symbol><symbol fill="none" viewBox="0 0 26 12" id="buttonArrow" xmlns="http://www.w3.org/2000/svg"><path d="M0 10.248h23.5L16 1.236" stroke="#141414" stroke-width="2"/></symbol><symbol fill="none" viewBox="0 0 24 24" id="facebook" xmlns="http://www.w3.org/2000/svg"><path d="M22 12.06C22 6.505 17.523 2 12 2S2 6.504 2 12.06c0 5.023 3.656 9.185 8.437 9.94v-7.03H7.9v-2.91h2.538V9.844c0-2.521 1.493-3.915 3.778-3.915 1.093 0 2.238.197 2.238.197v2.476h-1.262c-1.242 0-1.628.776-1.628 1.572v1.887h2.773l-.443 2.908h-2.33V22C18.344 21.245 22 17.083 22 12.06Z" fill="#000"/></symbol><symbol fill="none" viewBox="0 0 24 24" id="instagram" xmlns="http://www.w3.org/2000/svg"><path fill-rule="evenodd" clip-rule="evenodd" d="M12 3c-2.444 0-2.75.01-3.71.054-.959.044-1.613.196-2.186.419-.6.225-1.144.58-1.594 1.038-.457.45-.812.993-1.038 1.593-.221.573-.374 1.228-.418 2.186C3.011 9.25 3 9.555 3 12c0 2.445.01 2.75.054 3.71.044.959.196 1.613.419 2.186.225.6.58 1.144 1.038 1.594.45.458.993.812 1.593 1.038.573.222 1.227.374 2.186.418.96.044 1.266.054 3.71.054s2.75-.01 3.71-.054c.959-.044 1.613-.196 2.186-.419.6-.225 1.144-.58 1.594-1.038.458-.45.812-.993 1.038-1.593.222-.573.374-1.227.418-2.186.044-.96.054-1.266.054-3.71s-.01-2.75-.054-3.71c-.044-.959-.196-1.613-.419-2.186A4.413 4.413 0 0 0 19.49 4.51a4.415 4.415 0 0 0-1.593-1.038c-.573-.221-1.228-.374-2.186-.418C14.75 3.011 14.445 3 12 3Zm0 1.622c2.403 0 2.688.009 3.637.052.877.04 1.354.186 1.671.31.42.163.72.358 1.035.673.315.315.51.615.673 1.035.123.317.27.794.31 1.67.043.95.052 1.235.052 3.638 0 2.403-.009 2.688-.052 3.637-.04.877-.186 1.354-.31 1.671-.144.391-.374.745-.673 1.035-.29.299-.644.529-1.035.673-.317.123-.794.27-1.67.31-.95.043-1.234.052-3.638.052s-2.688-.009-3.637-.052c-.877-.04-1.354-.186-1.671-.31a2.787 2.787 0 0 1-1.035-.673 2.789 2.789 0 0 1-.673-1.035c-.123-.317-.27-.794-.31-1.67-.043-.95-.052-1.235-.052-3.638 0-2.403.009-2.688.052-3.637.04-.877.186-1.354.31-1.671.163-.42.358-.72.673-1.035.29-.299.644-.529 1.035-.673.317-.123.794-.27 1.67-.31.95-.043 1.235-.052 3.638-.052Z" fill="#000"/><path fill-rule="evenodd" clip-rule="evenodd" d="M12 15.003a3.002 3.002 0 1 1 0-6.004 3.002 3.002 0 0 1 0 6.004Zm0-7.629a4.626 4.626 0 1 0 0 9.252 4.626 4.626 0 0 0 0-9.252Zm5.972-.084a1.093 1.093 0 1 1-2.187 0 1.093 1.093 0 0 1 2.187 0Z" fill="#000"/></symbol><symbol viewBox="0 0 48 48" id="telegram" xmlns="http://www.w3.org/2000/svg"><path fill="#29b6f6" d="M24 4a20 20 0 1 0 0 40 20 20 0 1 0 0-40Z"/><path fill="#fff" d="m33.95 15-3.746 19.126s-.161.874-1.245.874c-.576 0-.873-.274-.873-.274l-8.114-6.733-3.97-2.001-5.095-1.355S10 24.375 10 23.625c0-.625.933-.923.933-.923l21.316-8.468c-.001-.001.651-.235 1.126-.234.292 0 .625.125.625.5 0 .25-.05.5-.05.5z"/><path fill="#b0bec5" d="m23 30.505-3.426 3.374s-.149.115-.348.12a.494.494 0 0 1-.219-.043l.964-5.965L23 30.505z"/><path fill="#cfd8dc" d="M29.897 18.196a.5.5 0 0 0-.701-.093L16 26s2.106 5.892 2.427 6.912c.322 1.021.58 1.045.58 1.045l.964-5.965 9.832-9.096a.499.499 0 0 0 .094-.7z"/></symbol><symbol fill="none" viewBox="0 0 24 24" id="tiktok" xmlns="http://www.w3.org/2000/svg"><path d="M18.115 6.009A4.793 4.793 0 0 1 15.937 2h-3.439l-.005 13.78a2.892 2.892 0 0 1-2.885 2.782 2.892 2.892 0 0 1-2.89-2.89 2.894 2.894 0 0 1 2.89-2.891c.298 0 .583.049.853.133v-3.51a6.308 6.308 0 0 0-.853-.062 6.336 6.336 0 0 0-6.329 6.33 6.324 6.324 0 0 0 2.702 5.181A6.292 6.292 0 0 0 9.608 22a6.336 6.336 0 0 0 6.329-6.329V8.684c1.348.968 3 1.538 4.784 1.538V6.784c-.96 0-1.855-.286-2.606-.775Z" fill="#000"/></symbol><symbol fill="none" viewBox="0 0 24 24" id="youtube" xmlns="http://www.w3.org/2000/svg"><path fill-rule="evenodd" clip-rule="evenodd" d="M19.792 5.415c.86.23 1.54.911 1.771 1.771C21.988 8.752 22 12 22 12s0 3.26-.424 4.814a2.519 2.519 0 0 1-1.771 1.772c-1.553.423-7.805.423-7.805.423s-6.252 0-7.805-.423a2.519 2.519 0 0 1-1.771-1.772C2 15.248 2 12 2 12s0-3.248.41-4.8c.232-.86.912-1.541 1.772-1.772 1.554-.424 7.805-.437 7.805-.437s6.252 0 7.805.424ZM15.184 12l-5.187 3.004V8.996L15.184 12Z" fill="#000"/></symbol></svg>